<svg width="50" height="50" viewBox="0 0 50 50" fill="none" xmlns="http://www.w3.org/2000/svg">
<path d="M9.72525 19.4998C9.14715 19.5833 8.51715 19.5958 7.83526 19.5375C8.41945 19.889 8.91919 20.2674 9.33447 20.6725L12.7311 24.2735C12.9517 24.4857 13.083 24.7069 13.125 24.937C13.18 25.1605 13.1701 25.3847 13.0952 25.6095L12.0449 28.7612L2.27818 18.7288L2.86923 16.955L16.7734 14.571L15.7231 17.7227C15.6482 17.9475 15.5198 18.1387 15.3378 18.2963C15.1688 18.4473 14.93 18.5486 14.6215 18.6003L9.72525 19.4998Z" fill="#1B718A"/>
<path d="M19.2514 34.0019C19.0564 34.231 18.837 34.4199 18.5933 34.5683C18.3594 34.72 18.1125 34.8295 17.8526 34.8969C17.6025 34.9675 17.3443 34.9976 17.078 34.9872C16.8215 34.9799 16.5764 34.9384 16.3426 34.8627L14.4143 34.2383L29.9951 15.068C30.356 14.6327 30.78 14.3477 31.2673 14.2131C31.7545 14.0786 32.2611 14.0964 32.787 14.2667L34.7153 14.8911L19.2514 34.0019Z" fill="#1B718A"/>
<path d="M46.5957 31.1137L46.0046 32.8875L32.1054 35.2568L33.1556 32.1051C33.2305 31.8803 33.3524 31.6924 33.5214 31.5414C33.7034 31.3838 33.9471 31.284 34.2524 31.2421L39.1535 30.328C39.7316 30.2445 40.3616 30.2319 41.0435 30.2903C40.4593 29.9387 39.9595 29.5604 39.5442 29.1552L36.1428 25.5689C35.9254 25.347 35.7892 25.1242 35.7342 24.9007C35.6922 24.6706 35.7087 24.4431 35.7836 24.2183L36.8338 21.0665L46.5957 31.1137Z" fill="#1B718A"/>
</svg>
