<svg width="73" height="49" viewBox="0 0 73 49" fill="none" xmlns="http://www.w3.org/2000/svg">
<path d="M11.6182 36.5801C11.0069 37.3978 10.2438 38.1919 9.32895 38.9625C10.4854 38.675 11.5706 38.525 12.5846 38.5125L21.2326 38.765C21.7675 38.7546 22.2032 38.8656 22.5395 39.0982C22.8837 39.3064 23.1484 39.5958 23.3337 39.9661L25.9309 45.1592L1.4617 44.8309L0 41.9082L14.2373 21.7782L16.8345 26.9713C17.0198 27.3417 17.0973 27.7367 17.0672 28.1564C17.0449 28.5519 16.8751 28.9722 16.5576 29.4174L11.6182 36.5801Z" fill="#F1931B"/>
<path d="M41.3139 42.7297C41.3561 43.254 41.3183 43.7584 41.2006 44.2431C41.0989 44.7196 40.9291 45.1601 40.6913 45.5646C40.4695 45.961 40.1876 46.3172 39.8456 46.6334C39.5196 46.9415 39.1654 47.1932 38.7829 47.3885L35.6281 49L31.192 6.05216C31.0999 5.06815 31.2718 4.19191 31.7076 3.42345C32.1435 2.65498 32.7916 2.051 33.652 1.6115L36.8069 0L41.3139 42.7297Z" fill="#F1931B"/>
<path d="M71.5383 5.36642L73 8.28905L58.7506 28.3949L56.1534 23.2018C55.9681 22.8315 55.8867 22.4485 55.9089 22.0531C55.939 21.6333 56.1169 21.2089 56.4424 20.7799L61.3697 13.593C61.981 12.7753 62.7441 11.9812 63.659 11.2107C62.5025 11.4981 61.4173 11.6481 60.4033 11.6607L51.7674 11.4323C51.2244 11.4266 50.7808 11.3196 50.4366 11.1113C50.1003 10.8788 49.8395 10.5774 49.6542 10.207L47.057 5.0139L71.5383 5.36642Z" fill="#F1931B"/>
</svg>
