<svg width="345" height="387" viewBox="0 0 345 387" fill="none" xmlns="http://www.w3.org/2000/svg">
<path d="M61.8977 152.347C60.1632 161.469 61.1957 203.993 61.1957 203.993C45.9876 193.173 49.9735 203.472 50.7938 238.839C51.6128 274.207 78.5151 277.155 78.5151 277.155C76.8634 291.269 87.911 307.01 87.911 307.01C172.953 404.353 223.06 343.223 241.54 332.553C260.021 321.884 270.528 273.397 270.528 273.397C300.97 271.082 294.824 238.369 299.281 215.777C303.737 193.183 287.275 196.761 287.275 196.761C290.479 177.737 281.98 142.324 281.98 142.324C286.321 108.457 283.26 105.744 283.26 105.744C228.908 -26.0911 55.0811 41.2759 56.5073 121.673C56.5073 121.673 58.9316 148.179 61.8977 152.347Z" fill="#FEEDE3"/>
<path d="M61.8977 152.347C60.1632 161.469 61.1957 203.993 61.1957 203.993C45.9876 193.173 49.9735 203.472 50.7938 238.839C51.6128 274.207 78.5151 277.155 78.5151 277.155C76.8634 291.269 87.911 307.01 87.911 307.01C172.953 404.353 223.06 343.223 241.54 332.553C260.021 321.884 270.528 273.397 270.528 273.397C300.97 271.082 294.824 238.369 299.281 215.777C303.737 193.183 287.275 196.761 287.275 196.761C290.479 177.737 281.98 142.324 281.98 142.324C286.321 108.457 283.26 105.744 283.26 105.744C228.908 -26.0911 55.0811 41.2759 56.5073 121.673C56.5073 121.673 58.9316 148.179 61.8977 152.347V152.347Z" stroke="#373535" stroke-width="2" stroke-miterlimit="10"/>
<path d="M91.6872 174.471C91.6872 174.471 92.1784 173.35 93.3231 171.606C93.9019 170.734 94.6471 169.693 95.6186 168.588C96.5926 167.49 97.7321 166.253 99.1412 165.075C100.549 163.902 102.151 162.675 103.996 161.591C105.834 160.504 107.886 159.489 110.11 158.698C111.211 158.249 112.373 157.959 113.544 157.591C114.725 157.315 115.937 156.997 117.166 156.839C117.784 156.745 118.403 156.652 119.025 156.558L120.899 156.389C122.161 156.247 123.414 156.261 124.683 156.223C125.952 156.166 127.196 156.29 128.468 156.264C129.725 156.31 130.97 156.398 132.225 156.456C133.458 156.578 134.681 156.722 135.89 156.897C137.086 157.104 138.234 157.408 139.365 157.721C140.5 158.033 141.538 158.493 142.569 158.932C143.085 159.147 143.58 159.398 144.075 159.626C144.549 159.895 145.017 160.159 145.478 160.42C146.402 160.935 147.275 161.491 148.112 162.02C148.916 162.613 149.699 163.159 150.42 163.74C151.896 164.837 153.1 166.053 154.158 167.122C155.224 168.179 156.058 169.225 156.716 170.116C157.372 171.013 157.864 171.737 158.18 172.258C158.501 172.771 158.655 173.066 158.655 173.066L158.026 174.08C158.026 174.08 157.688 174.085 157.085 174.052C156.478 174.027 155.616 173.949 154.549 173.826C153.49 173.687 152.233 173.493 150.821 173.27C149.411 173.043 147.883 172.688 146.233 172.363C145.405 172.204 144.577 171.978 143.712 171.774C142.856 171.556 141.956 171.392 141.069 171.139C140.178 170.892 139.264 170.667 138.344 170.428C137.421 170.199 136.514 169.833 135.58 169.568C134.653 169.275 133.728 168.899 132.791 168.536C131.852 168.201 130.909 167.79 129.945 167.422C128.981 167.094 128 166.73 127.004 166.439C126.01 166.177 124.991 165.921 123.975 165.746C122.958 165.6 121.93 165.395 120.911 165.336L119.374 165.197L117.85 165.158C116.827 165.092 115.838 165.216 114.828 165.201C113.843 165.297 112.837 165.313 111.882 165.486C109.935 165.713 108.106 166.218 106.356 166.726C104.607 167.246 103.014 167.948 101.557 168.658C100.104 169.377 98.8148 170.153 97.6987 170.898C96.5848 171.647 95.6672 172.385 94.909 173.002C93.4076 174.268 92.6966 175.109 92.6966 175.109L91.6872 174.471Z" fill="#373535"/>
<path d="M259.92 173.455C259.92 173.455 259.154 172.781 257.639 171.763C256.873 171.272 255.954 170.682 254.852 170.098C253.756 169.51 252.492 168.917 251.097 168.372C249.706 167.82 248.181 167.307 246.541 166.941C245.734 166.73 244.879 166.605 244.035 166.43C243.166 166.329 242.308 166.168 241.409 166.129C239.641 165.937 237.799 165.989 235.969 166.051C234.125 166.207 232.279 166.357 230.446 166.768C229.533 166.931 228.622 167.189 227.736 167.501C226.845 167.759 225.973 168.173 225.12 168.521C224.262 168.838 223.432 169.315 222.601 169.644C221.767 169.962 220.947 170.35 220.119 170.626C219.285 170.875 218.462 171.153 217.63 171.369C216.799 171.59 215.958 171.719 215.14 171.924C213.49 172.263 211.876 172.535 210.335 172.783C208.786 172.994 207.32 173.19 205.969 173.31C204.612 173.416 203.38 173.479 202.344 173.521C201.294 173.541 200.44 173.533 199.834 173.495C199.232 173.467 198.89 173.425 198.89 173.425L198.103 172.203C198.103 172.203 198.214 171.883 198.463 171.333C198.706 170.773 199.098 170 199.635 169.045C199.903 168.566 200.223 168.068 200.572 167.518C200.94 166.997 201.351 166.443 201.81 165.876C202.725 164.735 203.802 163.484 205.14 162.33C205.794 161.724 206.503 161.144 207.253 160.546C208.034 160.01 208.837 159.423 209.695 158.884C210.539 158.32 211.479 157.849 212.443 157.386C213.403 156.915 214.419 156.51 215.501 156.203C217.636 155.536 219.991 155.262 222.383 155.161C224.782 155.076 227.207 155.088 229.623 155.169C230.228 155.189 230.828 155.197 231.429 155.231L233.234 155.392C234.427 155.466 235.62 155.714 236.786 155.893C239.12 156.357 241.377 156.967 243.471 157.793C245.565 158.603 247.51 159.543 249.237 160.61C250.977 161.644 252.504 162.777 253.839 163.881C255.183 164.974 256.279 166.125 257.216 167.141C258.155 168.16 258.884 169.123 259.454 169.928C260.588 171.53 261.083 172.582 261.083 172.582L259.92 173.455Z" fill="#373535"/>
<path d="M148.296 196.267C148.296 196.267 121.653 170.489 104.704 193.994C104.704 193.994 118.097 206.281 148.296 196.267Z" fill="white"/>
<path d="M148.295 196.267C146.528 196.934 144.75 197.594 142.958 198.231L140.217 199.007C139.297 199.248 138.387 199.544 137.457 199.742L134.648 200.296L133.239 200.569L131.816 200.747L128.958 201.083C128 201.143 127.038 201.16 126.076 201.201C125.595 201.214 125.114 201.246 124.632 201.242L123.185 201.19C122.221 201.137 121.249 201.161 120.29 201.006C119.33 200.874 118.361 200.797 117.405 200.618C116.453 200.419 115.491 200.26 114.546 200.023C113.609 199.746 112.65 199.54 111.729 199.201C110.806 198.865 109.88 198.54 108.987 198.113C108.08 197.729 107.207 197.252 106.339 196.764C105.466 196.236 104.669 195.747 103.785 194.996L102.814 194.173L103.601 193.199C104.288 192.349 104.897 191.438 105.655 190.641C106.406 189.836 107.148 189.024 108.007 188.318C108.806 187.552 109.742 186.937 110.638 186.281C111.602 185.717 112.541 185.106 113.583 184.685C114.586 184.184 115.675 183.884 116.744 183.572L118.381 183.218L120.039 183.014C121.144 182.933 122.256 182.885 123.354 182.971C123.906 182.991 124.454 183.031 124.996 183.125C125.537 183.207 126.084 183.26 126.615 183.39C127.689 183.593 128.736 183.885 129.776 184.188C130.802 184.53 131.821 184.883 132.809 185.307C133.795 185.735 134.768 186.188 135.709 186.693C136.66 187.181 137.584 187.716 138.489 188.274C139.395 188.831 140.273 189.43 141.135 190.046C141.997 190.663 142.847 191.293 143.661 191.968C145.301 193.301 146.867 194.722 148.295 196.267ZM148.295 196.267C146.66 194.948 144.943 193.745 143.195 192.608C141.446 191.474 139.651 190.419 137.804 189.487C136.886 189.011 135.955 188.561 135.007 188.159C134.066 187.742 133.104 187.379 132.14 187.041C131.175 186.696 130.198 186.41 129.219 186.142C128.231 185.912 127.243 185.692 126.246 185.558C125.75 185.463 125.249 185.445 124.751 185.395C124.253 185.34 123.755 185.317 123.257 185.316C122.263 185.268 121.273 185.348 120.294 185.449L118.836 185.674L117.411 186.033C116.481 186.334 115.55 186.639 114.677 187.08C113.772 187.453 112.953 188.007 112.112 188.504C111.328 189.1 110.506 189.641 109.797 190.341C109.036 190.974 108.373 191.722 107.7 192.457C107.028 193.191 106.442 194.016 105.805 194.789L105.621 192.994C106.172 193.471 106.972 194.004 107.711 194.453C108.483 194.896 109.263 195.338 110.093 195.697C110.9 196.097 111.754 196.403 112.602 196.723C113.443 197.063 114.332 197.283 115.195 197.571C116.071 197.822 116.971 197.997 117.859 198.216C118.752 198.414 119.668 198.514 120.573 198.669C121.476 198.842 122.401 198.865 123.318 198.967L124.696 199.094C125.157 199.123 125.621 199.116 126.083 199.128C127.009 199.138 127.936 199.171 128.863 199.163L131.649 199.027L133.046 198.958L134.435 198.794L137.222 198.476C138.153 198.369 139.069 198.164 139.995 198.013L142.775 197.53C144.602 197.091 146.443 196.675 148.295 196.267Z" fill="#373535"/>
<path d="M202.616 196.265C202.616 196.265 226.992 168.892 245.806 192.75C245.806 192.75 234.808 205.305 202.616 196.265Z" fill="white"/>
<path d="M202.615 196.265C204.473 196.592 206.32 196.924 208.157 197.282C209.08 197.437 210.013 197.535 210.936 197.673L213.709 198.056L216.492 198.286C217.42 198.343 218.342 198.484 219.27 198.474L222.047 198.523C222.971 198.576 223.893 198.495 224.813 198.46C225.731 198.398 226.656 198.424 227.564 198.279L230.293 197.959L232.979 197.45C233.867 197.262 234.733 196.988 235.61 196.762C236.476 196.506 237.311 196.167 238.163 195.876C238.97 195.497 239.827 195.204 240.598 194.764C241.396 194.368 242.145 193.905 242.879 193.424C243.221 193.162 243.591 192.92 243.912 192.646C244.23 192.388 244.586 192.069 244.784 191.854L244.739 193.59C244.071 192.835 243.437 192.04 242.744 191.314C242.029 190.611 241.36 189.851 240.573 189.24C240.188 188.925 239.822 188.579 239.422 188.287L238.203 187.434C237.809 187.129 237.36 186.923 236.936 186.671C236.506 186.431 236.085 186.169 235.626 185.992L234.275 185.403L232.88 184.934C231.934 184.685 230.979 184.434 229.996 184.342C229.508 184.268 229.018 184.215 228.522 184.214C228.027 184.206 227.534 184.152 227.036 184.199C226.043 184.223 225.051 184.333 224.056 184.465L222.574 184.755C222.08 184.86 221.595 185.008 221.105 185.133C220.132 185.416 219.163 185.734 218.217 186.122C217.735 186.296 217.263 186.494 216.797 186.707C216.325 186.911 215.854 187.118 215.398 187.355C214.469 187.802 213.562 188.299 212.669 188.82C210.871 189.851 209.139 191.012 207.463 192.259C205.788 193.508 204.153 194.826 202.615 196.265ZM202.615 196.265C203.929 194.615 205.401 193.089 206.955 191.647C207.727 190.92 208.542 190.238 209.366 189.567C210.194 188.9 211.041 188.251 211.918 187.643C212.798 187.038 213.697 186.455 214.626 185.919C215.083 185.638 215.557 185.384 216.034 185.134C216.506 184.875 216.986 184.63 217.48 184.409C218.454 183.942 219.467 183.55 220.494 183.19C221.013 183.027 221.526 182.842 222.054 182.699L223.649 182.298L225.276 182.013C225.82 181.92 226.376 181.906 226.927 181.851C227.478 181.785 228.036 181.821 228.592 181.815C229.149 181.8 229.705 181.84 230.26 181.904C231.375 181.977 232.474 182.22 233.562 182.473L235.171 182.957C235.698 183.145 236.208 183.38 236.724 183.596C237.249 183.797 237.729 184.083 238.219 184.35C238.701 184.628 239.213 184.864 239.658 185.196L241.033 186.137C241.483 186.46 241.891 186.832 242.321 187.178C243.202 187.855 243.94 188.666 244.73 189.43C245.497 190.214 246.157 191.084 246.872 191.909L247.637 192.789L246.827 193.644C245.994 194.524 245.23 195.039 244.389 195.644C243.547 196.188 242.691 196.699 241.802 197.13C240.933 197.608 240.002 197.925 239.103 198.326C238.169 198.615 237.249 198.951 236.307 199.197C235.359 199.41 234.419 199.671 233.468 199.841L230.603 200.286L227.724 200.493C226.766 200.592 225.807 200.515 224.85 200.529C223.893 200.513 222.936 200.544 221.987 200.439L219.138 200.191C218.188 200.13 217.257 199.918 216.317 199.788C215.38 199.634 214.442 199.5 213.512 199.324L210.748 198.671C209.83 198.446 208.905 198.256 208 197.986C206.194 197.431 204.4 196.851 202.615 196.265Z" fill="#373535"/>
<path d="M198.015 234.855C199.601 235.955 201.197 237.068 202.617 238.414C204.078 239.706 205.38 241.186 206.533 242.788C207.675 244.396 208.637 246.18 209.197 248.13C209.752 250.076 209.905 252.167 209.577 254.209C209.269 256.255 208.425 258.227 207.14 259.898C206.499 260.737 205.738 261.501 204.802 262.116C204.331 262.422 203.812 262.688 203.216 262.873C202.608 263.032 201.89 263.137 201.092 262.85C200.272 262.526 199.74 261.774 199.51 261.096C199.331 260.388 199.296 259.941 199.203 259.534C199.037 258.863 198.69 258.12 198.164 257.625C197.138 256.559 195.416 256.135 193.787 256.259C192.174 256.361 190.47 257.164 189.993 258.185C189.943 258.309 189.896 258.432 189.874 258.559C189.848 258.62 189.864 258.689 189.851 258.753L189.825 259.022L189.8 259.201C189.763 259.445 189.739 259.671 189.691 259.928C189.589 260.261 189.472 260.595 189.343 260.922C188.796 262.075 188.106 262.955 187.257 263.686C185.606 265.166 183.543 266.143 181.24 266.32C180.097 266.445 178.89 266.213 177.775 265.782C176.694 265.262 175.696 264.531 175.01 263.607C174.664 263.149 174.294 262.697 174.082 262.19L173.417 260.835C173.205 260.419 173.007 259.915 172.786 259.574C172.55 259.263 172.368 258.93 172.114 258.622C171.08 257.342 169.631 256.535 168.092 256.396C166.546 256.217 164.965 256.879 163.785 257.961C162.582 259.054 161.834 260.646 161.554 262.348L161.363 263.509L160.252 263.332C159.321 263.183 158.551 262.951 157.736 262.664C156.936 262.376 156.159 262.023 155.409 261.612C153.919 260.776 152.538 259.664 151.508 258.245C150.977 257.551 150.575 256.767 150.225 255.971C149.921 255.156 149.695 254.32 149.573 253.473C149.451 252.626 149.432 251.781 149.454 250.942L149.564 249.696C149.616 249.285 149.701 248.881 149.77 248.474C149.916 247.663 150.146 246.876 150.378 246.096C150.653 245.329 150.902 244.556 151.243 243.824C151.547 243.075 151.891 242.347 152.264 241.637C152.611 240.912 153.012 240.219 153.412 239.527C153.797 238.825 154.228 238.155 154.66 237.484C155.079 236.807 155.52 236.145 155.986 235.499C156.444 234.85 156.897 234.196 157.396 233.577L158.859 231.701L157.594 233.713C157.158 234.374 156.791 235.077 156.381 235.751C155.968 236.425 155.581 237.113 155.218 237.812C154.842 238.506 154.468 239.197 154.144 239.914C153.803 240.621 153.462 241.328 153.179 242.058C152.868 242.776 152.59 243.505 152.351 244.245C152.077 244.975 151.898 245.728 151.692 246.471C151.517 247.218 151.339 247.968 151.247 248.721C151.205 249.099 151.144 249.474 151.118 249.85L151.081 250.976C151.103 251.721 151.16 252.459 151.304 253.176C151.446 253.893 151.681 254.576 151.958 255.234C152.276 255.873 152.62 256.499 153.079 257.044C153.958 258.164 155.132 259.041 156.427 259.704C157.08 260.028 157.76 260.305 158.46 260.527C159.144 260.743 159.911 260.924 160.545 261.014L159.245 261.996C159.538 259.887 160.438 257.75 162.067 256.181C163.663 254.626 165.945 253.598 168.278 253.791C170.608 253.94 172.768 255.205 174.168 256.921C174.531 257.353 174.837 257.861 175.16 258.338C175.455 258.812 175.607 259.217 175.836 259.66L176.457 260.902C176.613 261.299 176.882 261.583 177.114 261.897C177.582 262.532 178.206 262.936 178.851 263.269C179.54 263.497 180.269 263.686 181.058 263.596C182.616 263.506 184.252 262.779 185.47 261.683C186.105 261.175 186.595 260.469 186.889 259.893C186.935 259.769 186.992 259.653 187.065 259.536C187.108 259.322 187.138 259.065 187.176 258.832L187.202 258.653C187.198 258.716 187.218 258.477 187.194 258.791L187.196 258.758L187.201 258.692L187.212 258.56C187.233 258.385 187.233 258.208 187.282 258.038C187.351 257.688 187.47 257.358 187.617 257.04C188.248 255.787 189.308 255.006 190.352 254.528C191.409 254.038 192.513 253.809 193.62 253.737C195.798 253.633 198.203 254.192 199.887 255.967C200.729 256.847 201.239 257.922 201.49 259.128C201.584 259.667 201.637 260.186 201.679 260.42C201.77 260.65 201.83 260.732 201.92 260.797C202.042 260.847 202.32 260.865 202.645 260.792C202.976 260.702 203.332 260.546 203.682 260.339C204.381 259.921 205.036 259.328 205.591 258.652C206.704 257.302 207.521 255.649 207.89 253.891C208.27 252.134 208.246 250.276 207.837 248.48C207.442 246.678 206.691 244.937 205.711 243.322C204.727 241.712 203.572 240.176 202.235 238.8C201.599 238.079 200.878 237.45 200.196 236.767C199.493 236.105 198.74 235.494 198.015 234.855Z" fill="#373535"/>
<path d="M139.125 293.869C139.125 293.869 167.141 276.76 180.249 288.793C180.249 288.793 182.72 290.166 183.754 288.075C184.788 285.985 188.803 278.067 218.772 289.884C218.772 289.884 194.154 322.579 139.125 293.869Z" fill="#FCD0C7"/>
<path d="M139.125 293.868L144.038 296.073L149.005 298.119L154.054 299.937C155.766 300.447 157.459 301.015 159.181 301.476C160.911 301.904 162.61 302.448 164.36 302.775L166.968 303.333L169.598 303.759C171.344 304.085 173.118 304.187 174.876 304.399C176.644 304.475 178.407 304.632 180.173 304.582C181.94 304.615 183.699 304.476 185.455 304.362L188.078 304.082C188.949 303.972 189.812 303.809 190.681 303.676C192.406 303.362 194.121 302.986 195.804 302.495C197.49 302.026 199.147 301.454 200.768 300.801C202.392 300.155 203.974 299.414 205.527 298.616C207.056 297.776 208.573 296.907 209.999 295.907C211.436 294.923 212.824 293.865 214.12 292.711C215.406 291.58 216.68 290.301 217.678 289.061L218.269 291.159L213.447 289.338C212.644 289.03 211.824 288.787 211.013 288.508L208.574 287.694C207.757 287.438 206.933 287.222 206.112 286.984C205.288 286.765 204.474 286.489 203.643 286.315L201.157 285.75C200.33 285.539 199.494 285.454 198.664 285.296L197.416 285.084L196.168 284.965C195.335 284.876 194.503 284.799 193.681 284.819L192.444 284.809L191.235 284.918C190.826 284.939 190.429 284.992 190.047 285.089C189.666 285.181 189.26 285.223 188.897 285.351C188.538 285.483 188.167 285.595 187.814 285.735C187.491 285.915 187.14 286.062 186.833 286.26C186.229 286.665 185.697 287.141 185.285 287.719L185.005 288.155C184.891 288.359 184.826 288.507 184.671 288.757C184.381 289.287 183.856 289.836 183.194 290.098C182.539 290.367 181.876 290.368 181.314 290.276C180.732 290.172 180.276 290.016 179.73 289.727L179.644 289.682L179.526 289.579C178.882 289.025 178.242 288.461 177.514 288.012C177.172 287.753 176.785 287.565 176.408 287.362C176.035 287.15 175.651 286.957 175.246 286.807C174.46 286.451 173.623 286.209 172.786 285.975L171.504 285.694L170.198 285.508C169.322 285.418 168.438 285.335 167.547 285.346C166.658 285.319 165.766 285.379 164.872 285.427C163.98 285.51 163.087 285.594 162.197 285.737C161.306 285.857 160.42 286.036 159.536 286.214C155.991 286.925 152.502 288.008 149.099 289.317C147.397 289.973 145.714 290.686 144.053 291.449C142.385 292.198 140.735 292.994 139.125 293.868ZM139.125 293.868C142.207 291.879 145.459 290.149 148.814 288.636C152.168 287.121 155.635 285.821 159.23 284.883C160.132 284.664 161.038 284.451 161.957 284.292C162.871 284.113 163.798 283.993 164.726 283.873C165.659 283.79 166.593 283.695 167.538 283.688C168.478 283.647 169.426 283.699 170.372 283.763L171.792 283.917L173.204 284.174C174.137 284.399 175.075 284.636 175.974 285.004C176.434 285.159 176.876 285.36 177.309 285.585C177.746 285.8 178.191 286.004 178.596 286.281C179.447 286.769 180.208 287.386 180.971 288.006L180.767 287.858C181.287 288.121 182.054 288.217 182.317 288.051C182.464 287.981 182.577 287.867 182.693 287.637C182.767 287.519 182.879 287.27 182.97 287.092L183.368 286.419C183.946 285.565 184.707 284.855 185.535 284.285C185.95 284.007 186.398 283.8 186.831 283.56C187.279 283.37 187.735 283.216 188.188 283.048C188.642 282.884 189.105 282.82 189.564 282.705C190.025 282.582 190.485 282.515 190.942 282.478L192.321 282.331L193.684 282.315C194.599 282.28 195.495 282.345 196.388 282.425L197.731 282.53L199.051 282.728C199.926 282.877 200.823 282.955 201.679 283.17L204.269 283.742C205.137 283.921 205.97 284.196 206.822 284.418C207.669 284.658 208.523 284.877 209.363 285.136L211.862 285.952C212.692 286.231 213.537 286.478 214.355 286.785L219.275 288.61L221.028 289.26L219.866 290.709C218.617 292.268 217.318 293.513 215.912 294.751C214.517 295.976 213.038 297.09 211.509 298.124C209.988 299.176 208.38 300.085 206.758 300.962C205.113 301.79 203.444 302.583 201.718 303.223C199.998 303.881 198.244 304.449 196.466 304.91C194.693 305.392 192.89 305.754 191.08 306.051C190.172 306.173 189.267 306.326 188.356 306.423L185.62 306.659C183.792 306.717 181.964 306.794 180.141 306.697C178.314 306.683 176.503 306.458 174.69 306.316C172.892 306.037 171.079 305.865 169.305 305.471L166.637 304.941L163.999 304.28C162.231 303.88 160.52 303.281 158.788 302.768C157.072 302.199 155.393 301.528 153.697 300.913L148.723 298.792L143.859 296.449L139.125 293.868Z" fill="#373535"/>
<path d="M141.554 294.519C141.554 294.519 171.999 291.316 175.602 294.648C179.207 297.981 188.001 296.077 188.695 294.369C188.695 294.369 193.826 289.354 216.694 291.457" fill="#FCD0C7"/>
<path d="M141.554 294.519C145.528 293.751 149.533 293.188 153.554 292.75C155.564 292.527 157.58 292.335 159.602 292.205C161.625 292.067 163.653 291.949 165.693 291.938C167.735 291.922 169.781 291.933 171.88 292.167C172.937 292.307 173.979 292.438 175.144 292.869C175.462 293.026 175.726 293.085 176.08 293.343L176.329 293.521L176.451 293.613L176.512 293.66C176.338 293.512 176.469 293.623 176.433 293.592L176.442 293.599L176.46 293.613L176.761 293.841C177.209 294.221 177.453 294.258 177.774 294.443C178.532 294.764 179.401 294.928 180.289 295.048C181.189 295.135 182.113 295.139 183.038 295.064C183.961 294.972 184.884 294.818 185.754 294.572L186.388 294.368L186.966 294.129C187.103 294.04 187.323 293.947 187.401 293.876C187.441 293.843 187.499 293.807 187.534 293.788C187.499 293.799 187.481 293.841 187.497 293.883L187.791 293.444C188.215 293.081 188.454 292.954 188.775 292.764C189.075 292.596 189.375 292.439 189.673 292.312C190.272 292.035 190.872 291.815 191.475 291.623C192.679 291.225 193.889 290.963 195.102 290.749C195.708 290.627 196.317 290.578 196.923 290.494C197.529 290.406 198.136 290.363 198.743 290.318C199.955 290.204 201.164 290.174 202.373 290.151C202.977 290.141 203.58 290.167 204.182 290.174C204.785 290.192 205.387 290.183 205.987 290.222C207.187 290.291 208.388 290.358 209.58 290.48C210.774 290.606 211.965 290.718 213.15 290.893C214.336 291.061 215.516 291.267 216.694 291.457C215.498 291.466 214.302 291.489 213.113 291.476C211.922 291.477 210.731 291.53 209.545 291.535C208.359 291.545 207.174 291.65 205.993 291.676C205.402 291.693 204.815 291.756 204.225 291.793C203.638 291.842 203.048 291.87 202.464 291.934C201.297 292.081 200.125 292.158 198.973 292.354C198.395 292.437 197.816 292.516 197.25 292.637C196.683 292.756 196.105 292.84 195.551 292.992C194.995 293.138 194.425 293.24 193.885 293.414C193.334 293.565 192.795 293.735 192.273 293.933C191.748 294.121 191.234 294.336 190.762 294.578C190.516 294.694 190.294 294.824 190.079 294.956C189.887 295.068 189.627 295.269 189.6 295.295L189.893 294.857C189.766 295.107 189.604 295.355 189.426 295.575C189.276 295.723 189.132 295.838 188.978 295.965C188.669 296.219 188.413 296.318 188.123 296.494L187.311 296.845L186.51 297.116C185.444 297.432 184.375 297.624 183.295 297.745C181.141 297.941 178.889 297.871 176.68 296.925C175.363 296.347 174.652 295.474 174.176 295.358C173.453 295.071 172.482 294.906 171.548 294.778C169.647 294.513 167.657 294.398 165.671 294.341C163.681 294.295 161.68 294.259 159.675 294.264L153.652 294.321L141.554 294.519Z" fill="#373535"/>
<path d="M115.699 190.388C113.478 198.677 126.631 202.587 128.949 193.939C131.266 185.29 118.177 181.139 115.699 190.388Z" fill="#337ABE"/>
<path d="M115.699 190.388C113.478 198.677 126.631 202.587 128.949 193.939C131.266 185.29 118.177 181.139 115.699 190.388Z" stroke="#373535" stroke-width="1.756" stroke-miterlimit="10"/>
<path d="M218.043 190.03C215.822 198.319 228.976 202.23 231.293 193.581C233.611 184.932 220.521 180.782 218.043 190.03Z" fill="#337ABE"/>
<path d="M218.043 190.03C215.822 198.319 228.976 202.23 231.293 193.581C233.611 184.932 220.521 180.782 218.043 190.03Z" stroke="#373535" stroke-width="1.756" stroke-miterlimit="10"/>
<path d="M57.0743 214.072C57.0743 214.072 51.317 197.796 54.1577 224.296C56.9971 250.798 62.4622 252.262 64.8082 248.808C67.1541 245.354 57.871 240.913 65.2801 233.135" stroke="#373535" stroke-width="1.33333" stroke-miterlimit="10"/>
<path d="M288.263 220.457C288.263 220.457 300.185 189.214 294.489 223.723C288.793 258.232 287.465 250.598 285.206 246.443C282.947 242.287 292.273 239.283 284.764 228.218" stroke="#373535" stroke-width="1.33333" stroke-miterlimit="10"/>
<path d="M283.35 265.295C282.933 266.85 281.335 267.773 279.779 267.356C278.225 266.939 277.301 265.341 277.718 263.786C278.135 262.23 279.734 261.308 281.288 261.724C282.844 262.141 283.766 263.739 283.35 265.295Z" fill="#373535"/>
<path d="M283.35 265.295C282.933 266.85 281.335 267.773 279.779 267.356C278.225 266.939 277.301 265.341 277.718 263.786C278.135 262.23 279.734 261.308 281.288 261.724C282.844 262.141 283.766 263.739 283.35 265.295Z" stroke="#373535" stroke-width="3.31467" stroke-miterlimit="10"/>
<path d="M72.683 267.782C72.2662 269.337 70.6684 270.26 69.1128 269.843C67.5584 269.426 66.6348 267.828 67.0516 266.273C67.4684 264.717 69.0673 263.795 70.6218 264.211C72.1773 264.628 73.0998 266.226 72.683 267.782Z" fill="#373535"/>
<path d="M72.683 267.782C72.2662 269.337 70.6684 270.26 69.1128 269.843C67.5584 269.426 66.6348 267.828 67.0516 266.273C67.4684 264.717 69.0673 263.795 70.6218 264.211C72.1773 264.628 73.0998 266.226 72.683 267.782Z" stroke="#373535" stroke-width="3.31467" stroke-miterlimit="10"/>
<path d="M121.724 194.279C125.154 195.198 126.589 189.869 123.153 188.948C119.723 188.029 118.288 193.358 121.724 194.279Z" fill="#373535"/>
<path d="M223.638 194.018C227.068 194.937 228.502 189.608 225.066 188.688C221.636 187.769 220.202 193.098 223.638 194.018Z" fill="#373535"/>
<path d="M283.261 105.744C283.261 105.744 267.468 122.488 272.006 112.657C276.545 102.828 263.535 101.627 263.535 101.627C263.535 101.627 242.204 122.955 249.706 112.015C257.208 101.075 241.782 79.0387 241.782 79.0387C249.11 94.3344 220.214 119.73 225.78 101.796C231.348 83.8614 193.482 58.8599 204.644 79.7524C215.804 100.646 193.592 105.359 193.592 105.359C198.512 94.1073 191.183 78.8127 186.175 84.7077C181.168 90.6026 184.383 116.985 184.383 116.985C184.383 116.985 182.745 118.832 176.64 110.34C170.536 101.848 163.709 83.2588 163.709 83.2588C171.221 103.555 136.417 114.036 136.417 114.036C150.438 102.937 131.805 85.7566 131.805 85.7566C135.727 96.71 103.51 123.121 108.163 117.131C112.816 111.14 107.335 76.1524 106.014 91.034C104.692 105.917 86.2872 117.744 86.2872 117.744C86.2872 117.744 78.5101 81.3789 79.3466 95.3155C80.1831 109.252 56.8902 125.104 56.8902 125.104C51.5668 38.3551 233.779 -25.6202 283.261 105.744Z" fill="#EFF0AE"/>
<path d="M283.261 105.744C283.261 105.744 267.468 122.488 272.006 112.657C276.545 102.828 263.535 101.627 263.535 101.627C263.535 101.627 242.204 122.955 249.706 112.015C257.208 101.075 241.782 79.0387 241.782 79.0387C249.11 94.3344 220.214 119.73 225.78 101.796C231.348 83.8614 193.482 58.8599 204.644 79.7524C215.804 100.646 193.592 105.359 193.592 105.359C198.512 94.1073 191.183 78.8127 186.175 84.7077C181.168 90.6026 184.383 116.985 184.383 116.985C184.383 116.985 182.745 118.832 176.64 110.34C170.536 101.848 163.709 83.2588 163.709 83.2588C171.221 103.555 136.417 114.036 136.417 114.036C150.438 102.937 131.805 85.7566 131.805 85.7566C135.727 96.71 103.51 123.121 108.163 117.131C112.816 111.14 107.335 76.1524 106.014 91.034C104.692 105.917 86.2872 117.744 86.2872 117.744C86.2872 117.744 78.5101 81.3789 79.3466 95.3155C80.1831 109.252 56.8902 125.104 56.8902 125.104C51.5668 38.3551 233.779 -25.6202 283.261 105.744Z" stroke="#373535" stroke-width="2" stroke-miterlimit="10"/>
<g opacity="0.25">
<g opacity="0.25">
<path opacity="0.25" d="M95.9095 57.6644C95.9095 57.6644 92.586 72.2003 86.3599 76.2456C80.1338 80.2908 102.676 77.1894 107.094 69.2315C111.512 61.2736 115.118 77.6665 114.509 82.0739C113.899 86.4814 143.249 68.6349 140.946 62.3042C138.643 55.9736 153.872 73.7668 150.806 80.9442C147.876 87.8048 174.567 42.5649 172.436 55.3246C172.338 55.9131 172.178 56.6244 171.951 57.471L172.178 56.6245L169.255 82.4594C169.255 82.4594 190.038 64.6026 190.543 58.4531C191.048 52.3035 197.407 56.2927 200.424 59.958L203.441 63.6233C203.441 63.6233 211.249 45.1466 213.942 52.1532C216.636 59.1598 217.12 70.1453 217.12 70.1453L225.67 55.2956C225.67 55.2956 225.907 65.0722 228.353 70.8698C230.799 76.6673 233.352 52.212 240.206 58.6192C247.059 65.0264 254.723 72.2882 259.425 70.0538C266.732 66.5814 204.536 4.74158 117.682 44.6436C110.169 48.095 103.754 52.5181 95.9095 57.6644Z" fill="#DEB039"/>
</g>
</g>
</svg>
